<?xml version="1.0" standalone="no"?>
<!DOCTYPE svg PUBLIC "-//W3C//DTD SVG 20010904//EN"
 "http://www.w3.org/TR/2001/REC-SVG-20010904/DTD/svg10.dtd">
<svg version="1.0" xmlns="http://www.w3.org/2000/svg"
 width="323.000000pt" height="323.000000pt" viewBox="0 0 323.000000 323.000000"
 preserveAspectRatio="xMidYMid meet">
<metadata>
Created by potrace 1.11, written by Peter Selinger 2001-2013
</metadata>
<g transform="translate(0.000000,323.000000) scale(0.100000,-0.100000)"
fill="#000000" stroke="none">
<path d="M1655 3048 c-33 -5 -76 -13 -95 -18 -19 -5 -57 -14 -85 -21 -27 -7
-54 -16 -60 -20 -5 -5 -19 -9 -30 -9 -12 0 -40 -9 -63 -20 -22 -11 -46 -20
-51 -20 -14 0 -231 -116 -241 -129 -3 -3 -12 -10 -21 -16 -82 -51 -104 -70
-219 -178 -57 -54 -187 -211 -198 -237 -3 -8 -17 -33 -32 -55 -67 -102 -137
-273 -169 -410 -42 -186 -46 -213 -46 -350 0 -149 3 -167 64 -425 12 -50 45
-134 54 -138 4 -2 7 -8 7 -13 0 -18 54 -123 87 -170 18 -26 33 -50 33 -53 0
-4 27 -41 60 -81 203 -249 459 -405 770 -472 118 -25 411 -25 526 -1 250 54
423 147 594 318 92 92 182 214 227 310 37 76 63 139 63 150 0 6 4 18 9 28 6 9
19 55 31 101 32 125 32 382 0 513 -24 99 -23 98 -68 199 -139 313 -466 543
-812 569 -159 12 -316 -1 -417 -36 -100 -34 -170 -70 -269 -139 -67 -47 -214
-214 -214 -243 0 -6 -4 -12 -8 -14 -8 -3 -62 -110 -62 -122 0 -5 -6 -22 -14
-39 -28 -65 -41 -154 -41 -282 0 -117 15 -230 35 -260 3 -5 12 -29 20 -52 7
-24 16 -43 20 -43 3 0 12 -16 19 -35 7 -19 17 -35 22 -35 5 0 9 -5 9 -11 0
-21 103 -130 164 -173 73 -51 179 -106 206 -106 10 0 21 -4 24 -9 12 -18 150
-33 255 -28 232 11 429 136 533 337 45 86 58 143 58 248 0 96 -10 144 -43 212
-28 57 -33 64 -85 117 -52 53 -104 86 -180 115 -78 31 -247 33 -307 4 -66 -32
-120 -81 -145 -133 -13 -26 -27 -56 -32 -65 -4 -10 -8 -44 -8 -76 0 -52 4 -63
34 -98 45 -52 98 -70 158 -53 57 16 76 34 106 97 27 57 26 57 100 26 159 -65
106 -304 -86 -392 -143 -65 -316 -27 -449 99 -21 20 -45 49 -53 65 -8 16 -17
31 -21 34 -3 3 -15 35 -27 73 -26 79 -29 194 -8 275 18 65 77 187 110 227 14
17 29 35 34 40 84 99 291 185 446 185 70 0 212 -30 280 -58 187 -79 321 -217
386 -399 43 -119 56 -291 32 -428 -21 -120 -87 -269 -166 -375 -49 -66 -166
-180 -183 -180 -7 0 -13 -4 -13 -10 0 -15 -123 -79 -202 -104 -246 -79 -442
-75 -686 13 -94 34 -81 27 -191 99 -105 68 -224 185 -291 288 -92 140 -137
260 -170 449 -11 64 -11 275 0 340 15 91 40 189 50 199 5 5 10 18 10 28 0 11
8 33 17 51 10 18 22 46 28 62 13 36 116 194 153 236 48 55 101 109 106 109 2
0 20 15 38 33 59 56 88 76 214 147 76 43 124 65 169 76 17 4 35 10 40 14 6 4
35 13 65 20 30 7 65 16 78 21 13 5 38 9 57 9 112 0 182 42 205 124 11 42 11
49 -11 93 -13 26 -36 56 -51 66 -32 23 -99 29 -183 15z"/>
</g>
</svg>
